<?xml version="1.0" standalone="no"?>
<!DOCTYPE svg PUBLIC "-//W3C//DTD SVG 1.1//EN" "http://www.w3.org/Graphics/SVG/1.1/DTD/svg11.dtd">
<svg xmlns="http://www.w3.org/2000/svg">
<metadata>Generated by Fontastic.me</metadata>
<defs>
<font id="app-icons" horiz-adv-x="512">
<font-face font-family="app-icons" units-per-em="512" ascent="480" descent="-32"/>
<missing-glyph horiz-adv-x="512" />

<glyph glyph-name="abajo" unicode="&#97;" d="M256 109l-255 255 25 26 230-230 230 230 25-26z"/>
<glyph glyph-name="agenda" unicode="&#99;" d="M166 198l-45 0c-8 0-13-6-13-12l0-44c0-7 7-12 13-12l44 0c7 0 12 6 12 12l0 44c1 6-4 12-11 12z m111 0l-44 0c-7 0-12-6-12-12l0-44c0-7 6-12 12-12l44 0c7 0 12 6 12 12l0 44c0 6-6 12-12 12z m109 0l-43 0c-8 0-13-6-13-12l0-44c0-7 6-12 13-12l43 0c8 0 13 6 13 12l0 44c1 6-5 12-13 12z m76 256l0-62c0-28-23-50-51-50l-32 0c-28 0-51 22-51 50l0 62-144 0 0-62c0-28-23-50-51-50l-32 0c-28 0-51 22-51 50l0 62c-24 0-44-21-44-45l0-362c0-26 21-46 46-46l409 0c25 0 46 20 46 46l0 362c-1 24-21 45-45 45z m-16-385c0-11-8-20-19-20l-343 0c-11 0-19 9-19 20l0 188c0 11 8 19 19 19l343 0c11 0 19-8 19-19z m-345 306l32 0c10 0 17 7 17 17l0 102c0 10-7 17-17 17l-32 0c-10 0-17-7-17-17l0-101c0-10 7-18 17-18z m277 0l32 0c9 0 17 7 17 17l0 102c0 10-8 17-17 17l-32 0c-10 0-17-7-17-17l0-101c0-10 8-18 17-18z"/>
<glyph glyph-name="arriba" unicode="&#100;" d="M486 116l-230 230-230-230-25 25 255 255 255-255z"/>
<glyph glyph-name="ayuda" unicode="&#101;" d="M256 512c-141 0-256-115-256-256 0-141 115-256 256-256 141 0 256 115 256 256 0 141-115 256-256 256z m-2-99c23 0 41-17 41-39 0-22-18-39-41-39-24 0-42 17-42 39 0 22 18 39 42 39z m56-289l-109 0 0 44 16 0-1 101-15 0 0 47 88 0 0-142 21 0z"/>
<glyph glyph-name="camara" unicode="&#102;" d="M256 306c-43 0-77-34-77-76 0-43 34-76 77-76 41 0 76 33 76 76 0 42-34 76-76 76z m202 77l-60 0c-9 0-18 6-21 14l-15 47c-2 8-12 15-20 15l-172 0c-9 0-18-7-21-15l-15-47c-3-8-12-14-20-14l-61 0c-27 0-51-23-51-51l0-228c0-28 24-51 51-51l405 0c28 0 51 23 51 51l0 228c1 28-23 51-51 51z m-202-279c-70 0-127 57-127 127 0 69 57 126 127 126 69 0 126-57 126-126 1-71-56-127-126-127z m185 193c-10 0-17 7-17 17 0 10 7 17 17 17 10 0 17-7 17-17 0-10-7-17-17-17z"/>
<glyph glyph-name="casosexito" unicode="&#103;" d="M397 200c1 4 1 8 2 12 0 21 9 36 27 45 17 10 20 24 11 41-10 17-10 35 0 52 9 17 6 32-11 41-18 11-27 27-28 46 0 20-11 31-30 31-20 0-35 8-45 26-10 17-24 21-41 11-17-10-35-10-52 0-17 10-31 6-41-11-10-17-25-25-45-26-20 0-30-11-30-31 0-19-9-35-27-44-17-10-20-25-11-41 10-17 10-36 0-52-9-17-6-32 11-42 17-9 26-25 27-44 0-4 1-6 1-10l-78-155 65 8 36-55c0 0 47 99 67 139 7-2 15-1 24 4 17 9 35 9 52 0 9-6 18-6 25-4l81-138 24 60 64-9z m-142 6c-67 0-122 55-122 123 0 67 55 122 122 122 68 0 123-55 123-122 0-68-55-123-123-123z m97 121c0-53-42-95-95-95-54 0-96 42-96 95 0 54 42 96 96 96 52 0 95-42 95-96z"/>
<glyph glyph-name="cerrar" unicode="&#104;" d="M257-1c-142 0-257 115-257 256 0 142 115 257 257 257 141 0 256-115 256-257 0-141-115-256-256-256z m0 492c-130 0-236-106-236-236 0-130 106-235 236-235 130 0 235 105 235 235 0 130-105 236-235 236z m125-144l-35 35-92-91-90 91-35-35 91-90-91-92 35-35 90 91 92-91 35 35-91 92z"/>
<glyph glyph-name="clave" unicode="&#105;" d="M427 333l-32 0 0 36c0 77-62 140-139 140-77 0-140-63-140-140l0-36-31 0c-19 0-36-16-36-36l0-258c0-19 15-36 36-36l342 0c19 0 36 16 36 36l0 258c0 20-17 36-36 36z m-267 36c0 53 43 97 96 97 53 0 96-44 96-97l0-36-192 0z m196-235l-20-36-62 39 2-73-40 0 2 73-62-39-20 36 64 34-64 35 20 36 62-38-2 72 40 0-2-72 62 38 20-36-64-35z"/>
<glyph glyph-name="cocreacion" unicode="&#106;" d="M397 398c11 0 21 3 30 8l84 51 0 23-94-55c-8-5-15-7-24-7l-127 1c-6 2-12 4-13 4-39 9-70 6-90 0-16-4-32-2-47 5l-114 52 0-209 11-6c17-10 31-25 40-42l-7-5c-18-13-21-39-9-57 6-8 16-14 26-16 2 0 4 0 5 0 4 0 7 0 10 1 0-8 3-17 8-24 7-10 18-15 31-15 3 0 6 0 8 0-1-10 1-20 8-27 6-9 16-14 26-16 2 0 4 0 5 0 9 0 18 2 25 7l5 4c1-6 2-11 6-16 5-8 14-12 22-14 1 0 3 0 5 0 7 0 15 2 22 6l1 0 4-6c9-12 26-15 38-7 9 8 14 22 9 32l1-1c8-11 23-17 36-11 13 5 20 21 16 34 9-11 25-13 38-5l1 2c12 8 15 24 9 36 10-10 26-11 38-3 14 9 17 29 7 43l-14 22 32 37c8 10 18 18 29 25l16 9 0 25-22-13c-13-8-23-16-33-28l-35-40c-11 9-27 10-39 3-14-10-17-30-7-44l0-1 1 0c-10 6-24 7-34 0l-1 0c-10-6-14-18-12-29l-3-2c-10 5-20 5-30-1-9-6-13-16-12-26l-9-5c-7 2-15 0-21-4-7-6-11-14-11-23l-5-3c-3-2-7-3-10-2-5 1-8 3-10 6-2 4-3 8-2 11 1 4 3 8 6 10l50 37c3 2 5 4 5 8 0 5-5 10-11 10-2 0-4 0-5-1l-80-57c-5-4-10-5-15-4-6 1-11 5-14 9-6 8-4 22 4 29l95 67c2 2 3 4 3 7 0 6-4 10-9 11-3 0-6-1-8-3l-93-67c-2-1-4-4-6-6-11-7-28-5-34 2-6 7-5 19 2 26l10 6 103 71c2 2 4 4 4 7 0 3-1 7-4 9-3 2-7 3-11 0l-110-75c-2-1-3-2-4-2l-10-7c-9-7-23-5-29 4-7 8-4 22 4 29l208 153c17-9 29-30 29-30 20-64 46-65 62-56 8 4 12 14 8 22-7 24-11 72-11 72-6 12-25 25-45 36l67-1z"/>
<glyph glyph-name="compartir" unicode="&#107;" d="M257-1c-142 0-257 115-257 256 0 142 115 257 257 257 141 0 256-115 256-257 0-141-115-256-256-256z m0 492c-130 0-236-106-236-236 0-130 106-235 236-235 130 0 235 105 235 235 0 130-105 236-235 236z m57-281c-15 0-29-6-39-16l-59 41c2 6 3 13 3 22 0 7-1 14-3 21l61 41c10-10 23-16 38-16 32 0 56 25 56 57 0 31-24 56-56 56-31 0-56-25-56-56 0-7 1-14 3-21l-60-41c-11 9-24 15-39 15-32 0-56-25-56-56 0-31 24-57 56-57 15 0 28 6 39 16l59-41c-2-7-3-14-3-22 0-30 24-56 56-56 32 0 56 25 56 56 0 31-26 57-56 57z"/>
<glyph glyph-name="conferencistas" unicode="&#108;" d="M405 0l-298 0c-59 0-107 48-107 107l0 298c0 59 48 107 107 107l298 0c59 0 107-48 107-107l0-298c0-59-48-107-107-107z m-298 478c-40 0-73-33-73-73l0-298c0-40 33-73 73-73l298 0c40 0 73 33 73 73l0 298c0 40-33 73-73 73z m119-461l17 97-18 24-24-13-20 42-59-28c-26-13-48-43-48-70l0-21c0-1-1-2-1-4l0-27z m213 0l0 19c0 2-1 4-1 5l0 26c0 25-22 56-48 70l-61 31-20-45-22 16-20-25 17-97z m-79 271c0 66-48 119-106 119-59 0-106-53-106-119 0-66 47-120 106-120 58 0 106 54 106 120z"/>
<glyph glyph-name="derecha" unicode="&#109;" d="M142 1l-26 25 230 230-230 230 26 25 255-255z"/>
<glyph glyph-name="editar" unicode="&#110;" d="M185 77l325 333-102 102-324-324z m-38-36l-145-41 42 144z"/>
<glyph glyph-name="encuesta" unicode="&#112;" d="M153 512l208 0 0-115-208 0z m46-169l187 0 0-28-187 0z m0-110l187 0 0-28-187 0z m0-117l187 0 0-28-187 0z m-41 213c0-13-11-23-23-23-13 0-23 10-23 23 0 13 10 23 23 23 12 0 23-10 23-23z m0-111c0-13-11-23-23-23-13 0-23 10-23 23 0 13 10 23 23 23 12 0 23-10 23-23z m0-117c0-13-11-23-23-23-13 0-23 10-23 23 0 13 10 23 23 23 12 0 23-10 23-23z m285-101l-374 0c-12 0-23 11-23 23l0 440c0 14 11 23 23 23l373 0c13 0 23-11 23-23l0-440c1-12-10-23-22-23z m-369 28l364 0 0 430-364 0z"/>
<glyph glyph-name="facebook" unicode="&#113;" d="M484 512l-456 0c-16 0-28-12-28-28l0-456c0-16 12-28 28-28l245 0 0 199-66 0 0 77 67 0 0 57c0 66 41 102 100 102 28 0 53-2 60-3l0-70-41 0c-32 0-38-15-38-38l0-48 77 0-10-77-68 0 0-199 130 0c16 0 28 12 28 28l0 456c0 16-12 28-28 28z"/>
<glyph glyph-name="izquierda" unicode="&#116;" d="M364 1l-255 255 255 255 26-25-230-230 230-230z"/>
<glyph glyph-name="like" unicode="&#117;" d="M257-1c-142 0-257 115-257 256 0 142 115 257 257 257 141 0 256-115 256-257 0-141-115-256-256-256z m0 492c-130 0-236-106-236-236 0-130 106-235 236-235 130 0 235 105 235 235 0 130-105 236-235 236z m153-188c0 48-33 88-77 88-44 0-75-41-78-43-2 2-34 43-77 43-44 0-77-40-77-88 0-48 29-77 153-194 127 117 156 146 156 194z"/>
<glyph glyph-name="masmenu" unicode="&#118;" d="M104 256c0-29-23-52-52-52-29 0-52 23-52 52 0 29 23 52 52 52 29 0 52-23 52-52z m204 0c0-29-23-52-52-52-29 0-52 23-52 52 0 29 23 52 52 52 29 0 52-23 52-52z m204 0c0-29-23-52-52-52-29 0-52 23-52 52 0 29 23 52 52 52 29 0 52-23 52-52z"/>
<glyph glyph-name="menosmenu" unicode="&#119;" d="M255 75c-10 0-18 5-24 11l-225 304c-10 13-7 32 6 41 13 10 32 7 42-5l201-272 203 269c10 12 29 15 42 5 13-9 16-28 6-41l-228-301c-6-7-15-11-23-11z"/>
<glyph glyph-name="mientrada" unicode="&#120;" d="M235 275l-235 0 0 236 235 0z m-205 31l175 0 0 174-175 0z m40 134l95 0 0-94-95 0z m165-439l-235 0 0 236 235 0z m-205 31l175 0 0 174-175 0z m40 134l95 0 0-94-95 0z m222 56l39 0 0-205-39 0z m0 0l205 0 0-39-205 0z m55 218l95 0 0-94-95 0z m95-368l54 0 0-55-54 0z m0 87l54 0 0-55-54 0z m-76 0l55 0 0-55-55 0z m146 116l-235 0 0 236 235 0z m-205 31l175 0 0 174-175 0z"/>
<glyph glyph-name="networking" unicode="&#121;" d="M508 318c-9 28-40 44-69 35-22-7-37-28-37-50l-38-13c5-11 9-22 11-34l39 13c14-18 37-26 59-19 28 8 43 40 35 68z m-234 37l0 41c21 7 36 28 36 51 0 30-24 53-53 53-30 0-54-24-54-53 0-23 15-43 36-51l0-41c6 1 12 1 18 1 5 0 11 0 17-1z m-164-52c0 22-15 43-37 50-28 9-60-6-69-35-9-28 6-60 35-69 22-7 47 1 59 19l39-13c2 11 6 23 11 34z m37-185c-21 5-45-2-59-20-18-25-12-58 11-76 25-17 59-12 76 12 14 18 14 44 1 63l24 32c-11 6-21 13-30 21z m188-21c-13-19-13-43 1-63 17-25 51-29 75-12 25 18 29 51 12 76-14 18-37 25-59 20l-24 32c-8-8-18-15-29-21z m5 139c0-46-37-84-83-84-47 0-84 38-84 84 0 47 37 84 84 84 45 0 83-37 83-84z"/>
<glyph glyph-name="pregunta" unicode="&#65;" d="M256 512c-141 0-256-115-256-256 0-141 115-256 256-256 141 0 256 115 256 256 0 141-115 256-256 256z m23-419l-62 0 0 53 62 0z m56 181c-10-16-22-29-36-40-8-7-14-13-16-21-3-7-4-17-4-29l-62 0c0 21 4 35 9 44 6 10 17 21 32 35 9 9 15 17 21 28 5 10 7 22 7 34 0 14-2 25-8 33-6 9-13 13-24 13-9 0-16-4-22-11-6-8-10-17-10-31l-61 0 0 1c0 30 7 52 26 66 17 15 39 23 67 23 29 0 53-8 70-25 17-17 26-40 26-69 0-18-5-35-15-51z"/>
<glyph glyph-name="salir" unicode="&#66;" d="M256 0c-132 0-238 106-238 238 0 57 21 113 59 156 10 11 25 12 36 2 11-10 13-25 3-36-29-35-47-77-47-122 0-103 83-187 187-187 104 0 187 83 187 187 0 45-16 89-47 122-10 11-8 26 3 36 11 10 26 9 36-2 38-44 59-99 59-156 0-132-108-238-238-238z m0 243c-15 0-26 11-26 25l0 218c0 15 11 26 26 26 15 0 26-11 26-26l0-218c0-14-11-25-26-25z"/>
<glyph glyph-name="subir" unicode="&#67;" d="M434 15l-356 0c-43 0-78 35-78 78l0 102 38 0 0-102c0-23 17-41 40-41l356 0c23 0 40 18 40 41l0 102 38 0 0-102c0-43-35-78-78-78z m-178 482l-149-149 81 0 0-208 136 0 0 208 81 0z"/>
<glyph glyph-name="tiempo" unicode="&#68;" d="M256 0c-141 0-256 115-256 256 0 141 115 256 256 256 141 0 256-115 256-256 0-141-115-256-256-256z m0 472c-119 0-216-97-216-216 0-119 97-216 216-216 119 0 216 97 216 216 0 119-97 216-216 216z m121-251l-150 0 0 174 40 0 0-133 110 0z"/>
<glyph glyph-name="twitter" unicode="&#69;" d="M511 414c-19-8-39-14-61-17 22 13 39 33 47 58-20-12-43-21-66-26-20 21-47 34-77 34-58 0-104-47-104-105 0-7 1-15 3-23-88 4-165 45-216 109-9-16-14-33-14-53 0-37 19-68 46-87-16 1-33 5-47 13 0 0 0-1 0-1 0-50 37-92 84-102-9-2-18-4-28-4-7 0-13 1-19 2 12-42 52-72 97-73-35-28-81-44-130-44-9 0-17 1-25 1 47-30 102-48 161-48 192 0 297 160 297 298 0 5 0 8 0 13 20 15 38 34 52 55z"/>
<glyph glyph-name="usuariostop" unicode="&#70;" d="M512 314c-1 3-2 4-5 5l-169 25-76 154c-3 4-9 4-12 0l-76-154-169-25c-3 0-5-2-5-5-1-2 0-4 1-6l124-119-30-169c0-2 0-5 2-6 2-1 3-1 4-1 1 0 2 0 2 1l152 79 153-79c2-1 4-1 7 0 2 1 2 4 2 6l-30 169 123 119c2 2 3 4 2 6z"/>
<glyph glyph-name="vermas" unicode="&#71;" d="M256 0c-141 0-256 115-256 256 0 141 115 256 256 256 141 0 256-115 256-256 0-141-115-256-256-256z m0 482c-125 0-226-101-226-226 0-125 101-226 226-226 125 0 226 101 226 226 0 125-101 226-226 226z m134-204l-119 0 0 119-30 0 0-119-120 0 0-30 120 0 0-121 30 0 0 121 119 0z"/>
<glyph glyph-name="logistica" unicode="&#72;" d="M459 387l-79 0 0 52c0 38-32 70-70 70l-107 0c-38 0-69-32-69-70l0-52-82 0c-26 0-47-22-47-48l0-289c0-27 22-48 47-48l407 0c26 0 47 22 47 48l0 289c0 27-22 48-47 48z m-291 52c0 20 15 35 35 35l107 0c20 0 35-15 35-35l0-48-177 0z"/>
<glyph glyph-name="info" unicode="&#114;" d="M257 512c-142 0-257-115-257-257 0-141 115-256 257-256 141 0 256 115 256 256-1 142-116 257-256 257z m22-420l-62 0 0 54 62 0z m57 182c-10-16-22-29-37-40-8-7-13-13-16-21-2-7-4-18-4-30l-62 0c0 20 2 35 9 44 5 10 16 22 33 35 8 8 15 17 20 28 6 9 8 21 8 35 0 13-2 25-8 33-5 8-13 12-24 12-8 0-16-4-21-10-5-7-9-18-9-30l-62 0 0 2c0 29 8 50 25 65 18 15 41 23 67 23 30 0 54-8 70-26 17-17 25-40 25-68 0-19-5-36-14-52z"/>
<glyph glyph-name="interaccion" unicode="&#115;" d="M257 511c-140 0-255-114-255-254 0-45 13-87 33-124l-35-132 131 34c37-21 81-33 126-33 141 0 254 114 254 254 1 141-113 255-254 255z m-117-361c-21 0-37 16-37 37 0 20 16 36 37 36 21 0 36-16 36-36 0-20-15-37-36-37z m0 139c-21 0-37 16-37 36 0 21 16 37 37 37 21 0 36-16 36-37 0-20-15-36-36-36z m269-130c0-3-3-5-5-5l-190 0c-2 0-5 2-5 5l0 58c0 3 3 5 5 5l190 0c2 0 5-2 5-5z m0 137c0-2-3-5-5-5l-190 0c-2 0-5 3-5 5l0 57c0 3 3 5 5 5l190 0c2 0 5-2 5-5z"/>
<glyph glyph-name="podium" unicode="&#73;" d="M257 499l23-48 53-8-38-37 8-52-46 25-48-25 9 52-38 37 52 8z m85-362l0 148-171 0 0-79-171 0 0-193 513 0 0 124z m-221-84l-69 0 0 15 31 40c5 6 8 12 9 16 3 5 4 8 4 12 0 4-1 9-2 11-3 3-5 5-10 5-4 0-7-2-9-6-2-3-3-8-3-14l-22 0c0 11 2 19 9 26 7 7 15 10 25 10 11 0 20-3 26-9 6-6 9-14 9-24 0-7-1-14-5-20-3-6-9-14-17-23l-16-22 42 0 0-17z m160 28l-33 0 0 138-30-1 0 24 63 6z m167-48c-5-5-13-8-23-8-8 0-15 2-20 7-6 4-10 11-10 21l19 0c0-4 1-7 3-10 3-2 5-3 8-3 4 0 7 1 10 3 2 3 3 6 3 11 0 6-1 9-3 11-3 3-6 4-10 4l-9 0 0 14 10 0c4 0 7 1 9 3 2 2 2 6 2 11 0 3-1 6-4 9-2 2-4 3-8 3-3 0-5-1-7-3-1-3-2-4-2-7l-18 0c0 8 2 14 8 18 5 5 12 7 20 7 10 0 17-2 22-7 6-4 9-11 9-20 0-5-2-9-4-13-2-4-6-7-10-9 4-3 8-5 10-10 2-3 4-9 4-14 1-7-3-13-9-18z"/>
<glyph glyph-name="vuelo" unicode="&#74;" d="M500 503c-4 5-48 27-97-23l-93-102-257 46-22-20 184-127-109-116-96 17-9-10 60-61c-3-12 0-26 9-35 10-11 24-15 36-11l61-61 10 10-17 96 117 108 126-184 22 22-46 257 102 95c50 53 24 95 19 99z"/>
<glyph glyph-name="notificaciones" unicode="&#122;" d="M218 39c8-28 37-45 65-38 28 8 45 37 36 65z m254 122l-65 38-38 140c-20 79-91 128-170 127l-5 18c-5 21-28 33-49 28-19-7-32-29-27-50l5-18c-69-37-105-115-84-194l38-140-38-65 7-25 433 115z"/>
<glyph glyph-name="post" unicode="&#75;" d="M375 45l-328 0 0 327 150 0 45 47-211 0c-17 0-30-13-30-30l0-361c0-15 13-28 30-28l361 0c16 0 29 13 29 29l0 218-46-46z m132 409l-19 21-14 14-13 13-3 2-4 4c-3 4-10 4-14 0l-279-275c0 0-1-1-1-1 0 0 0-2-1-2l-35-74-14-29c-1-4-1-9 3-12 0 0 1-1 1-1 0 0 0 0 1 0 0 0 0 0 1 0 0 0 2 0 2 0 0 0 1 0 1 0 0 0 1 0 1 0 0 0 2 0 2 0 0 0 1 0 1 0l104 49c0 0 1 0 1 1 0 0 1 1 1 1l278 274c2 3 2 5 2 8 2 2 0 5-2 7z m-365-309l30 62 33-33z m69 53l-14 14 219 221 14-16z"/>
<glyph glyph-name="upmenu" unicode="&#76;" d="M257 437c10 0 18-5 24-11l225-304c10-13 7-32-6-41-13-10-32-7-42 5l-201 272-203-269c-10-12-29-15-42-5-13 9-16 28-6 41l228 301c6 7 15 11 23 11z"/>
<glyph glyph-name="email" unicode="&#111;" d="M25 427c4 2 8 2 13 2l436 0c5 0 9 0 13-2l-196-183c-20-19-51-19-71 0z m480-326c3 6 6 12 6 19l0 272c0 5-1 10-3 14l-183-171z m-197 118c-14-13-33-20-52-20-19 0-38 7-53 20l-179-133c4-3 9-3 14-3l436 0c5 0 10 0 14 3z m-304 187c-2-4-3-9-3-14l0-273c0-7 2-13 6-19l180 134z"/>
<glyph glyph-name="editcircle" unicode="&#77;" d="M220 165l165 170-52 51-165-165z m-19-18l-74-21 21 73z m55-147c-141 0-256 115-256 256 0 141 115 256 256 256 141 0 256-115 256-256 0-141-115-256-256-256z m0 483c-125 0-227-102-227-227 0-125 101-227 227-227 125 0 227 101 227 227 0 126-102 227-227 227z"/>
<glyph glyph-name="avion" unicode="&#78;" d="M496 88l-479 0c-8 0-16-6-16-16 0-8 7-16 16-16l478 0c8 0 16 7 16 16 0 10-7 16-15 16z m-405 149c4-5 10-7 16-6l104 28-8-68c-1-6 1-11 6-15 2-2 6-3 10-3 2 0 3 0 5 1l55 17c4 1 6 2 8 6l70 103 57 23c33 14 57 28 72 41 29 25 27 47 21 62-5 13-19 28-51 28-22 0-51-7-87-23l-232-93-66 47c-4 3-9 3-15 1l-46-19c-4-2-7-6-9-10-1-5 0-10 3-15z"/>
<glyph glyph-name="hotel" unicode="&#79;" d="M384 461l0 51-256 0 0-51-77 0 0-461 154 0 0 51 102 0 0-51 154 0 0 461z m-154-333l-51 0 0 51 51 0z m0 102l-51 0 0 52 51 0z m0 103l-51 0 0 51 51 0z m103-205l-51 0 0 51 51 0z m0 102l-51 0 0 52 51 0z m0 103l-51 0 0 51 51 0z"/>
<glyph glyph-name="eventos" unicode="&#80;" d="M233 452l0 60c-59-6-110-33-149-72-4 0-6 1-10 1-35 0-63-28-63-63 0-15 5-29 15-40-6-21-9-43-9-65 0-35 7-69 22-99l51 30c-8 22-13 45-13 69 0 15 2 28 5 42 31 2 57 30 57 63 0 10-2 18-6 27 25 25 61 42 100 47z m218-318l-51 29c-23-30-56-52-93-63-11 16-30 27-51 27-21 0-40-11-51-27-37 11-70 33-93 63l-51-29c33-45 80-78 135-93 9-24 32-40 59-40 27 0 50 17 58 40 58 14 106 48 138 93z m50 244c0 35-28 63-63 63-4 0-6 0-10-1-38 40-90 66-148 72l0-60c39-5 75-22 102-48-4-9-7-18-7-27 0-33 26-60 58-64 3-13 5-27 5-41 0-25-5-48-14-68l51-30c14 31 21 64 21 99 0 22-4 44-8 65 8 11 13 25 13 40z"/>
<glyph glyph-name="mis-ideas" unicode="&#81;" d="M330 83l0-20c0-15-11-28-25-30l-5-17c-3-10-11-16-21-16l-46 0c-10 0-18 6-21 16l-5 17c-14 2-25 15-25 30l0 20c0 10 8 18 18 18l112 0c11 0 18-8 18-18z m15 79c-4-21-22-36-43-36l-92 0c-22 0-41 15-43 36-4 25-15 48-32 65-30 31-46 72-47 114-1 94 73 170 166 171l1 0c94 0 169-76 169-168 0-44-17-87-47-117-16-19-27-40-32-65z m6 90c23 25 37 58 37 92 0 72-60 131-133 131l-1 0c-72-1-131-61-130-134 0-33 14-64 37-89 22-23 36-52 41-85 0-4 4-5 6-5l30 0 0 109-39 39c-8 7-8 18 0 24 7 7 18 7 24 0l62 0c8 7 19 7 25 0 7-7 7-18 0-24l-39-39 0-109 29 0c4 0 6 3 6 5 7 33 22 62 45 85z"/>
<glyph glyph-name="home-eventos" unicode="&#82;" d="M256 397l-189-189c0 0 0-163 0-184 0-20 20-19 20-19l108 0c0 0 0 119 0 141 0 22 21 21 21 21l80 0c0 0 21 1 21-21 0-22 0-141 0-141l108 0c0 0 20 0 20 19 0 20 0 184 0 184z m245-129c-23 22-232 231-232 231 0 0-4 8-13 8-9 0-13-8-13-8 0 0-210-209-232-231-23-22-5-38 9-45 12-7 25 9 25 9l211 211 211-211c0 0 12-16 25-9 14 7 32 24 9 45z"/>
<glyph glyph-name="info-evento" unicode="&#83;" d="M256 328c20 0 37-15 37-34 0-18-16-34-37-34-20 0-37 14-37 34 0 18 17 34 37 34z m50-255l-95 0 0 38 13 0-1 89-12 0 0 40 78 0 0-125 18 0 0-42z m-196 349l0 67c0 13 11 23 23 23 12 0 23-10 23-23l0-67c0-12-10-23-23-23-12 0-23 11-23 23z m123 0l0 67c0 13 11 23 23 23 12 0 23-10 23-23l0-67c0-12-10-23-23-23-12 0-23 11-23 23z m123 0l0 67c0 12 10 23 23 23 12 0 23-10 23-23l0-67c0-12-9-23-23-23-12 0-23 11-23 23z m60 51l0-54c0-19-16-36-37-36-21 0-36 16-36 36l0 55-50 0 0-53c0-20-16-37-37-37-21 0-37 16-37 37l0 53-50 0 0-53c0-20-15-37-36-37-21 0-37 16-37 37l0 52c-53-5-96-51-96-106l0-260c0-59 48-107 107-107l298 0c58 0 107 48 107 107l0 260c0 55-43 101-96 106z m62-366c0-40-33-73-73-73l-298 0c-40 0-73 33-73 73l0 187c0 40 33 73 73 73l298 0c40 0 73-33 73-73z"/>
</font>
</defs>
</svg>
